<svg width="582" height="459" viewBox="0 0 582 459" fill="none" xmlns="http://www.w3.org/2000/svg">
<path d="M556.157 389.204C524.901 389.204 55.5253 389.321 55.268 388.5L55.2212 388.406C55.2212 388.406 55.1744 388.313 55.1744 388.266C55.0106 387.867 -35.2008 351.429 24.2461 269.972C55.4317 227.274 -0.201775 161.901 66.0297 104.22C169.834 13.8522 268.888 125.159 310.859 104.22C346.162 86.6106 402.872 61.4042 460.424 84.0079C476.239 90.2215 510.489 121.407 482.041 173.813C467.817 200.004 530.89 203.052 553.957 230.885C604.233 291.52 574.873 389.204 556.157 389.204Z" fill="#F2F2F2"/>
<g opacity="0.5">
<path opacity="0.5" d="M380.998 200.824C380.998 200.824 374.962 152.968 391.83 119.297C394.076 114.818 400.697 115.662 401.796 120.539C401.82 120.61 401.843 120.704 401.843 120.797C403.621 129.168 385.724 170.788 380.998 200.824Z" fill="#95B5A0"/>
</g>
<g opacity="0.5">
<path opacity="0.5" d="M381.418 214.846C381.418 214.846 390.636 150.857 424.676 115.053C426.758 112.872 430.244 112.614 432.49 114.607C433.964 115.897 435.04 118.242 434.806 122.368C434.128 133.389 397.584 179.065 381.418 214.846Z" fill="#95B5A0"/>
</g>
<path d="M456.025 215.925C456.025 215.925 438.432 231.236 441.474 234.331C444.515 237.426 459.839 215.855 459.839 215.855C459.839 215.855 482.86 221.06 488.919 226.875C488.919 226.875 464.705 236.231 468.401 238.482C472.121 240.733 497.762 232.174 497.762 232.174C497.762 232.174 517.367 242.585 512.08 254.918C506.793 267.252 498.347 268.823 495.306 267.439C492.264 266.056 476.192 252.949 474.929 255.411C473.689 257.873 481.971 269.972 489.597 272.926C489.597 272.926 469.641 284.275 461.43 276.396C453.241 268.518 454.832 260.827 449.685 256.044C444.538 251.261 439.345 249.572 440.912 253.23C442.48 256.888 452.563 263.266 454.013 270.558C455.464 277.85 457.219 283.032 447.65 278.179C438.081 273.325 424.138 260.546 426.197 251.847C426.29 251.472 426.384 251.096 426.454 250.768C426.22 251.425 426.197 251.847 426.197 251.847C423.974 251.518 418.359 253.957 414.195 255.95C413.54 256.325 412.581 256.818 411.224 257.427C410.639 257.732 410.171 257.967 409.844 258.154C401.187 263.125 392.788 276.912 392.788 276.912L390.66 275.998C396.766 260.241 411.832 255.247 411.832 255.247C422.781 250.51 428.255 243.148 428.255 243.148C428.255 243.148 419.436 221.693 436.374 215.503C436.42 215.526 448.188 212.806 456.025 215.925Z" fill="#95B5A0"/>
<path d="M114.177 223.616C114.177 223.616 137.478 223.827 137.244 219.465C137.01 215.128 111.276 221.107 111.276 221.107C111.276 221.107 97.4493 201.927 96.7708 193.556C96.7708 193.556 121.102 202.63 119.815 198.48C118.528 194.329 93.6359 183.708 93.6359 183.708C93.6359 183.708 85.8219 162.909 97.9172 157.165C110.036 151.42 117.382 155.875 118.739 158.9C120.096 161.948 123.488 182.441 126.061 181.433C128.612 180.425 130.39 165.84 126.623 158.572C126.623 158.572 149.082 163.308 150.018 174.657C150.954 186.006 144.684 190.695 145.386 197.706C146.088 204.717 148.848 209.43 150.088 205.631C151.328 201.833 147.983 190.367 151.726 183.942C155.469 177.517 157.575 172.476 161.552 182.465C165.529 192.454 167.518 211.282 160.242 216.441C159.914 216.675 159.61 216.886 159.329 217.074C159.938 216.722 160.242 216.441 160.242 216.441C161.692 218.152 167.518 220.075 171.939 221.318C172.688 221.482 173.717 221.763 175.144 222.185C175.776 222.35 176.291 222.49 176.665 222.561C186.444 224.577 201.838 219.817 201.838 219.817L202.821 221.927C187.825 229.689 173.249 223.428 173.249 223.428C161.903 219.7 152.942 221.599 152.942 221.599C152.942 221.599 145.362 243.523 128.588 236.934C128.588 236.934 117.99 231.166 114.177 223.616Z" fill="#95B5A0"/>
<path d="M519.736 342.075H534.873V293.163H519.736V342.075Z" fill="#659977"/>
<path d="M483.258 342.075H519.754V293.163H483.258V342.075Z" fill="#244932"/>
<path d="M529.837 299.258C529.837 297.851 528.714 296.726 527.31 296.726C525.907 296.726 524.784 297.851 524.784 299.258C524.784 300.665 525.907 301.79 527.31 301.79C528.714 301.79 529.837 300.665 529.837 299.258Z" fill="#DDE7FE"/>
<path d="M529.089 299.258C529.089 298.273 528.293 297.476 527.311 297.476C526.328 297.476 525.533 298.273 525.533 299.258C525.533 300.243 526.328 301.04 527.311 301.04C528.293 301.04 529.089 300.243 529.089 299.258Z" fill="#659977"/>
<path d="M523.695 318.239H530.807V305.366H523.695V318.239Z" fill="#EEF9ED"/>
<path d="M491.526 342.075H506.663V293.163H491.526V342.075Z" fill="#659977"/>
<path d="M455.025 342.075H491.521V293.163H455.025V342.075Z" fill="#244932"/>
<path d="M501.622 299.258C501.622 297.851 500.499 296.726 499.096 296.726C497.692 296.726 496.569 297.851 496.569 299.258C496.569 300.665 497.692 301.79 499.096 301.79C500.476 301.79 501.622 300.665 501.622 299.258Z" fill="#DDE7FE"/>
<path d="M500.873 299.258C500.873 298.273 500.078 297.476 499.095 297.476C498.112 297.476 497.317 298.273 497.317 299.258C497.317 300.243 498.112 301.04 499.095 301.04C500.078 301.04 500.873 300.243 500.873 299.258Z" fill="#659977"/>
<path d="M495.487 318.239H502.599V305.366H495.487V318.239Z" fill="#EEF9ED"/>
<path d="M465.717 342.075H480.854V293.163H465.717V342.075Z" fill="#578768"/>
<path d="M429.217 342.075H465.713V293.163H429.217V342.075Z" fill="#244932"/>
<path d="M475.819 299.258C475.819 297.851 474.696 296.726 473.292 296.726C471.888 296.726 470.765 297.851 470.765 299.258C470.765 300.665 471.888 301.79 473.292 301.79C474.672 301.79 475.819 300.665 475.819 299.258Z" fill="#DDE7FE"/>
<path d="M475.069 299.258C475.069 298.273 474.274 297.476 473.291 297.476C472.309 297.476 471.513 298.273 471.513 299.258C471.513 300.243 472.309 301.04 473.291 301.04C474.274 301.04 475.069 300.243 475.069 299.258Z" fill="#659977"/>
<path d="M469.677 318.239H476.79V305.366H469.677V318.239Z" fill="#EEF9ED"/>
<path d="M426.945 388.3H512.43V325.015H426.945V388.3Z" fill="#FF7D44"/>
<path d="M472.754 388.3H540.53V325.015H472.754V388.3Z" fill="#FF7D44"/>
<path d="M501.74 335.344H519.286C520.363 335.344 521.252 334.453 521.252 333.375V333.117C521.252 332.038 520.363 331.147 519.286 331.147H501.74C500.664 331.147 499.775 332.038 499.775 333.117V333.375C499.775 334.453 500.664 335.344 501.74 335.344Z" fill="#244932"/>
<path d="M284.891 242.28L273.333 380.036C273.333 380.036 272.117 388.383 278.317 388.406C288.517 388.43 329.037 388.406 329.037 388.406C329.037 388.406 321.364 386.671 321.457 382.755C321.574 378.136 334.956 240.99 334.956 240.99L284.891 242.28Z" fill="#578768"/>
<path d="M332.827 385.897C330.816 385.897 291.582 385.968 281.662 385.851C277.334 385.804 276.586 382.005 276.539 379.543C276.516 378.371 276.679 377.503 276.679 377.503L276.983 373.916L277.755 364.794L278.434 356.728L279.3 346.365L280.025 337.619L288.236 239.724L338.325 238.411C338.325 238.411 332.687 295.811 328.687 337.595C328.242 342.261 327.821 346.716 327.423 350.89C327.306 352.227 327.166 353.516 327.049 354.782C326.675 358.745 326.347 362.356 326.043 365.568C325.879 367.257 325.739 368.827 325.622 370.258C325.107 375.885 324.803 379.496 324.803 380.176C324.803 380.575 324.826 380.95 324.897 381.302C325.739 385.686 332.079 385.897 332.827 385.897Z" fill="#578768"/>
<path d="M163.26 167.247L191.428 280.617L195.265 296.14L208.389 348.944H452.026L403.691 167.247H163.26Z" fill="#659977"/>
<path d="M163.26 167.247L159.353 168.56L203.195 352.883L208.389 348.944L163.26 167.247Z" fill="#578768"/>
<path d="M203.196 352.883H445.335L452.026 348.944H208.39L203.196 352.883Z" fill="#40664C"/>
<path d="M288.225 388.386H340.654V385.901H288.225V388.386Z" fill="#578768"/>
<path d="M327.33 352.883L327.049 354.782L277.755 364.771L278.434 356.705L278.761 352.883H327.33Z" fill="#659977"/>
<path d="M332.827 385.897C330.815 385.897 291.582 385.968 281.662 385.851C277.334 385.804 276.585 382.005 276.539 379.543L325.621 370.281C325.107 375.909 324.803 379.52 324.803 380.2C324.803 380.598 324.826 380.973 324.896 381.325C325.738 385.686 332.079 385.897 332.827 385.897Z" fill="#659977"/>
<path d="M163.26 167.247H403.692L442.691 313.256H199.523L163.26 167.247Z" fill="#578768"/>
<path d="M431.367 306.949H206.237L198.189 274.826L195.077 262.398L193.814 257.333L185.555 224.319L185.134 222.607L180.759 205.162L178.794 197.354L177.133 190.695L175.776 185.255L173.226 175.079H395.082L397.889 185.255L399.386 190.695L401.211 197.354L403.363 205.162L417.518 256.583L418.711 260.944L419.272 262.961L429.028 298.461L431.367 306.949Z" fill="#244932"/>
<path d="M163.166 245.703C163.166 245.703 163.751 239.279 156.592 239.279C156.592 239.279 158.768 239.865 159.868 241.037C159.868 241.037 155.306 238.364 150.346 242.468C145.386 246.594 148.474 256.935 146.953 258.904C145.433 260.874 139.561 261.249 140.286 267.604C141.011 273.958 158.932 281.907 157.785 287.159C157.785 287.159 164.804 276.795 159.797 272.082C159.797 272.082 162.254 274.403 162.488 277.147C162.488 277.147 163.143 271.777 159.751 270.066C156.733 268.542 154.276 262.984 154.533 262C154.814 261.015 163.166 245.703 163.166 245.703Z" fill="#0C1E12"/>
<path d="M156.124 276.49C156.124 276.49 161.458 298.648 166.699 303.057C169.857 305.706 179.215 311.826 179.215 311.826L175.308 313.233C175.308 313.233 162.301 308.825 159.4 305.401C156.499 301.978 148.521 284.791 148.521 284.791L156.124 276.49Z" fill="#FFBE9D"/>
<path d="M186.959 319.916L185.696 316.797C184.339 313.467 181.11 311.263 177.531 311.263H154.37V325.988V388.852H250.149V325.988H195.966C192.012 326.012 188.433 323.597 186.959 319.916Z" fill="#FF7D44"/>
<path d="M105.919 315.39C105.965 315.484 106.012 315.554 106.059 315.648C107.229 317.688 109.919 322.682 112.867 328.122C114.271 330.701 115.721 333.398 117.125 335.954C119.511 340.339 121.687 344.231 122.95 346.294C124.237 348.381 125.196 349.858 125.57 350.444C125.687 350.632 125.711 350.843 125.687 351.054C125.547 352.906 125.594 354.735 125.781 356.541C127.559 374.314 139.514 383.834 139.514 383.834L143.07 384.35C143.07 384.35 138.04 365.686 136.566 355.134C136.309 353.352 136.215 351.898 136.285 350.96C136.543 348.217 136.051 344.184 135.139 339.541C133.501 331.311 130.483 321.182 127.863 313.092C127.699 312.576 122.693 294.451 122.693 294.451C118.505 298.133 103.205 299.633 103.205 299.633C103.205 299.633 100.631 305.964 105.919 315.39Z" fill="#244932"/>
<path d="M150.533 388.875H135.7C135.7 388.875 135.349 386.601 136.121 384.889C136.87 383.248 137.923 383.178 136.262 380.598C137.197 381.56 140.239 381.982 142.368 381.677C142.625 382.099 144.052 384.96 144.941 385.593C145.924 386.32 150.229 386.062 150.533 388.875Z" fill="#0C1E12"/>
<path d="M105.919 315.39C105.966 315.484 106.013 315.554 106.06 315.648C107.23 317.688 113.546 329.388 116.494 334.852C113.078 320.736 115.441 306.621 115.441 306.621L105.919 315.39Z" fill="#0C1E12"/>
<path d="M161.131 244.789C161.225 244.39 152.662 248.681 152.217 249.15C148.194 253.605 149.34 259.444 151.656 259.491C153.13 259.538 152.849 261.976 152.849 261.976L169.272 255.012C169.272 255.036 167.307 243.476 161.131 244.789Z" fill="#0C1E12"/>
<path d="M155.61 273.161C155.61 273.161 158.113 278.155 157.786 282.235C157.786 282.235 154.768 286.995 146.954 288.214C146.977 288.214 153.691 273.161 155.61 273.161Z" fill="#C66044"/>
<path d="M117.476 300.759L117.522 297.968C112.001 298.672 98.4787 291.356 98.4787 291.356C98.4787 291.356 92.7002 295.202 91.9047 306.222C91.507 311.592 89.0739 334.312 88.7932 341.089C88.6996 343.551 88.6528 345.309 88.6528 346.013C88.6528 346.224 88.5592 346.411 88.4189 346.576C87.2725 348.029 86.2899 349.577 85.4243 351.171C77.0021 366.905 81.4003 388.266 81.4003 388.266L83.3655 387.773C83.3655 387.773 90.501 365.615 95.1566 356.049C95.9521 354.431 96.6773 353.164 97.2622 352.438C99.0168 350.304 100.865 346.693 102.69 342.332C106.129 334.078 117.476 300.759 117.476 300.759Z" fill="#244932"/>
<path d="M93.2153 388.875H78.3828C78.3828 388.875 78.0319 386.601 78.8039 384.889C79.5526 383.248 80.6989 382.498 80.4416 380.504C81.3774 381.466 82.9214 382.568 85.0738 382.286C85.3311 382.709 86.7582 385.006 87.6473 385.64C88.5831 386.32 92.9111 386.062 93.2153 388.875Z" fill="#0C1E12"/>
<path d="M145.972 291.403C143.983 291.755 146.299 293.326 143.562 293.631C139.655 294.053 135.631 294.357 133.526 295.202C132.754 295.506 132.239 295.882 132.075 296.374C131.163 299.141 125.361 303.854 125.361 303.854C99.5326 302.681 97.8716 291.145 97.8716 291.145C114.622 274.826 128.893 265.939 140.685 264.837C143.562 264.579 147.422 264.931 149.224 265.728C153.341 267.557 155.611 273.161 155.611 273.161C155.611 273.161 153.552 290.113 145.972 291.403Z" fill="#FF7D44"/>
<path d="M143.561 293.631C139.654 294.053 135.63 294.358 133.524 295.202C132.659 282.305 138.741 272.575 138.741 272.575C138.741 272.575 142.695 288.73 143.561 293.631Z" fill="#C66044"/>
<path d="M146.93 270.394C146.93 270.394 137.127 269.855 135.373 276.021C133.642 282.188 138.648 306.832 139.724 309.364C141.689 313.983 151.609 327.77 151.609 327.77L154.791 326.129C154.791 326.129 148.404 305.941 146.977 303.948C144.731 300.806 149.854 273.067 146.93 270.394Z" fill="#FFBE9D"/>
<path d="M154.791 326.129C154.791 326.129 155.61 326.833 156.265 327.653C156.92 328.451 156.335 328.755 158.23 332.413C158.23 332.413 158.136 332.929 157.715 332.835C157.294 332.741 155.867 331.335 155.142 331.428C155.142 331.428 154.627 331.85 154.557 333.304C154.51 334.641 154.51 337.619 154.276 338.158C154.042 338.721 152.334 335.813 151.516 333.726C150.79 331.897 151.492 325.707 151.492 325.707L154.791 326.129Z" fill="#FFBE9D"/>
<path d="M133.431 284.275C133.455 284.416 142.719 285.987 148.498 283.032C148.498 283.032 153.34 267.838 146.415 268.565C139.514 269.292 135.42 271.472 135.233 274.779C135.092 278.108 133.431 284.275 133.431 284.275Z" fill="#FF7D44"/>
<path d="M149.012 266.783C149.106 268.002 149.27 269.456 150.884 271.097C152.124 272.363 153.879 273.348 155.142 272.106C155.774 271.472 156.639 270.511 157.06 269.761C158.136 267.908 159.423 266.009 159.423 266.009L153.878 261.132L153.551 260.851C152.1 263.406 150.673 264.626 149.41 265.564C149.036 265.845 148.989 266.314 149.012 266.783Z" fill="#FFBE9D"/>
<path d="M159.424 266.033C159.424 266.033 158.137 267.932 157.061 269.784C153.622 267.651 153.598 263.383 153.879 261.156L159.424 266.033Z" fill="#DD9F83"/>
<path d="M159.587 268.471C159.587 268.471 151.212 263.805 154.183 258.623C157.154 253.441 158.09 249.338 163.565 252.105C169.039 254.872 168.922 257.451 168.361 259.42C167.776 261.39 161.833 269.55 159.587 268.471Z" fill="#FFBE9D"/>
<path d="M169.763 256.396C169.389 254.098 168.219 253.863 167.401 254.027C164.312 248.892 159.259 250.909 159.259 250.909C156.569 254.309 152.662 254.895 152.662 254.895C152.662 254.895 153.644 256.7 157.645 257.826C158.861 258.178 160.265 257.967 161.599 257.498C158.815 259.045 155.914 259.655 155.914 259.655C161.201 260.147 166.207 255.294 166.722 254.778C166.956 255.528 167.401 257.099 167.143 258.248C166.792 259.796 165.412 262.633 166.254 262.984C166.254 262.984 170.348 259.842 169.763 256.396Z" fill="#0C1E12"/>
<path d="M180.759 311.85C180.759 311.85 178.42 313.608 180.175 314.757C181.929 315.906 185.088 316.211 185.088 315.46C185.158 312.928 183.894 311.123 180.759 311.85Z" fill="#FFBE9D"/>
<path d="M573.188 392.041H32.2004C30.633 392.041 29.3696 390.751 29.3696 389.204C29.3696 387.633 30.6564 386.366 32.2004 386.366H573.188C574.756 386.366 576.019 387.656 576.019 389.204C576.019 390.751 574.756 392.041 573.188 392.041Z" fill="#B7C9B5"/>
<path d="M236.744 213.908L234.662 210.837C232.439 207.531 228.649 205.373 225.116 205.373H202.283L206.236 219.887L221.958 277.522C222.66 280.101 224.999 281.907 227.666 281.907H309.853C313.76 281.907 316.615 278.179 315.562 274.403L300.682 219.911H247.225C243.341 219.887 239.177 217.519 236.744 213.908Z" fill="#FF7D44"/>
<path d="M239.106 196.604C238.755 197.026 238.709 197.471 238.872 197.964C239.2 198.878 240.276 199.887 241.539 200.895C241.703 201.036 241.844 201.153 241.961 201.247C241.984 201.27 242.031 201.293 242.054 201.34C242.077 201.364 242.101 201.387 242.124 201.411C243.294 202.489 242.85 202.747 244.955 204.951C247.365 207.46 249.002 207.507 249.47 207.273C249.868 207.085 249.049 205.749 248.16 204.248C248.113 204.178 248.067 204.107 248.02 204.037C247.903 203.849 247.786 203.638 247.669 203.427C246.616 201.622 246.897 200.778 247.131 198.105C247.341 195.924 250.5 185.959 250.5 185.959L245.891 185.161C245.891 185.161 244.511 193.11 242.967 194.329C242.148 194.986 241.235 194.986 240.44 195.478C240.393 195.502 240.323 195.549 240.276 195.572C239.925 195.9 239.457 196.205 239.106 196.604Z" fill="#FFBE9D"/>
<path d="M239.106 196.604C238.755 197.026 238.709 197.471 238.872 197.964C239.27 198.878 240.323 199.887 241.539 200.895C241.703 201.035 241.844 201.153 241.961 201.27C241.984 201.293 242.031 201.317 242.054 201.364C242.077 201.387 242.101 201.411 242.124 201.434C243.294 202.513 242.85 202.771 244.955 204.975C247.365 207.484 249.002 207.531 249.47 207.296C249.868 207.108 249.049 205.772 248.16 204.271C247.692 204.107 245.517 203.216 243.879 201.106C242.475 199.324 241.539 197.049 240.58 195.643C240.487 195.619 240.416 195.619 240.299 195.596C239.925 195.9 239.457 196.205 239.106 196.604Z" fill="#0C1E12"/>
<path d="M276.234 193.743C276.515 195.174 278.55 194.939 280.796 194.376C283.065 193.814 282.527 194.47 285.732 194.118C288.961 193.767 289.92 192.547 290.037 192.078C290.131 191.656 288.54 191.492 286.832 191.305C286.621 191.281 286.411 191.258 286.177 191.234C284.258 191 282.831 189.734 281.077 188.725C279.416 187.764 276.936 183.801 276.936 183.801L272.514 184.153C272.514 184.153 274.83 187.694 275.719 189.218C276.257 190.109 276.211 191.305 276.164 192.243C276.164 192.735 276.14 193.227 276.234 193.743Z" fill="#FFBE9D"/>
<path d="M280.796 194.376C283.065 193.814 282.527 194.47 285.733 194.118C288.961 193.767 289.92 192.547 290.037 192.078C290.131 191.656 288.54 191.492 286.832 191.305L286.809 191.328C286.809 191.328 284.867 192.712 282.2 192.758C280.024 192.805 277.708 192.172 276.187 192.196C276.164 192.688 276.117 193.204 276.211 193.72C276.515 195.174 278.55 194.939 280.796 194.376Z" fill="#0C1E12"/>
<path d="M259.32 165.418L255.179 176.556L249.774 191.094C249.774 191.094 248.301 191.234 246.92 190.836C245.634 190.461 244.16 189.476 244.16 189.476C244.16 189.476 245.657 173.86 248.464 164.903C249.19 162.605 249.985 160.752 250.874 159.697C255.179 154.586 259.32 165.418 259.32 165.418Z" fill="#FF7D44"/>
<path d="M255.108 147.739C252.769 146.988 246.616 147.715 239.972 148.935C238.123 149.263 236.275 148.419 235.316 146.824L218.565 145.511C218.565 145.511 213.044 157.798 216.062 165.606C216.506 166.755 217.489 167.482 218.986 167.505C218.986 167.505 229.093 167.529 232.345 167.529C240.673 167.529 249.961 161.807 251.178 161.55C253.143 161.151 253.938 165.09 255.904 169.24C257.869 173.391 274.409 187.6 274.409 187.6C274.409 187.6 276.959 187.623 277.989 187.225C279.112 186.803 279.533 186.24 279.533 186.24C279.533 186.24 261.214 149.708 255.108 147.739Z" fill="#FF7D44"/>
<path d="M233.562 97.5372C232.322 96.7869 231.105 96.6696 230.357 96.6931C229.842 96.7165 229.327 96.6696 228.813 96.5993C222.426 95.6614 218.566 104.97 218.355 107.76C217.934 112.919 215.22 113.716 211.383 116.928C203.686 123.4 205.956 130.927 210.143 133.741C212.67 135.429 217.115 133.741 217.115 133.741C217.185 133.787 229.281 126.964 235.246 123.681C244.16 122.439 237.141 99.6709 233.562 97.5372Z" fill="#0C1E12"/>
<path d="M230.24 120.915C230.263 120.938 227.316 121.946 225.327 121.055C223.455 120.235 222.052 117.163 222.075 117.163C222.917 117.116 223.853 116.389 224.578 111.512L224.929 111.653L230.989 113.833C230.989 113.833 230.544 115.78 230.263 117.632C230.029 119.179 229.912 120.68 230.24 120.915Z" fill="#FFBE9D"/>
<path d="M230.989 113.833C230.989 113.833 230.755 114.889 230.404 116.858C226.918 116.225 225.42 113.529 224.929 111.653L230.989 113.833Z" fill="#DD9F83"/>
<path d="M231.901 115.756C231.901 115.756 223.596 114.631 224.391 109.472C225.163 104.314 224.625 100.679 229.936 101.172C235.27 101.664 235.995 103.798 236.159 105.58C236.323 107.385 234.077 115.92 231.901 115.756Z" fill="#FFBE9D"/>
<path d="M235.854 102.766C235.854 102.766 230.544 107.362 226.941 107.714C223.338 108.089 221.958 106.916 221.958 106.916C221.958 106.916 224.086 105.134 225.373 102.297C225.748 101.453 226.543 100.867 227.479 100.796C230.029 100.562 234.918 100.468 235.854 102.766Z" fill="#0C1E12"/>
<path d="M232.533 102.344C232.533 102.344 234.311 104.056 234.872 105.345C235.41 106.588 235.574 109.519 235.153 110.691C235.153 110.691 237.914 105.298 236.346 102.672C234.685 99.9054 232.533 102.344 232.533 102.344Z" fill="#0C1E12"/>
<path d="M237.211 133.154C236.954 149.99 237.141 146.473 235.293 148.067C234.848 148.442 233.609 148.677 231.971 148.794C226.824 149.146 217.77 148.278 217.419 147.317C216.226 144.011 217.068 143.002 216.086 137.938C215.992 137.398 215.852 136.812 215.711 136.179C214.892 132.709 214.074 131.536 217.021 125.956C219.688 120.915 222.449 116.811 222.683 116.952C229.702 121.126 230.263 117.608 230.263 117.608C230.263 117.608 237.352 124.948 237.211 133.154Z" fill="#244932"/>
<path d="M255.179 176.556L249.774 191.094C249.774 191.094 248.301 191.234 246.92 190.836C245.634 190.461 244.16 189.476 244.16 189.476C244.16 189.476 245.657 173.86 248.464 164.903L255.179 176.556Z" fill="#FF7D44"/>
<path d="M230.263 117.632C230.263 117.632 237.469 118.851 238.334 121.97C239.177 125.088 241.961 143.987 241.961 143.987C241.961 143.987 239.925 145.98 238.241 144.269C236.556 142.58 232.907 126.589 232.907 126.589L230.263 117.632Z" fill="#244932"/>
<path d="M231.971 148.794C226.824 149.146 217.77 148.278 217.419 147.317C216.226 144.011 217.068 143.002 216.085 137.938L218.565 130.927C218.565 130.927 218.144 138.735 220.437 140.775C222.73 142.838 229.842 144.737 230.965 146.449C231.526 147.293 231.877 148.114 231.971 148.794Z" fill="#0C1E12"/>
<path d="M226.076 145.511C226.076 145.511 231.152 144.386 231.971 144.831C232.79 145.277 234.802 146.918 235.036 147.504C235.293 148.067 233.211 147.059 232.533 146.895C232.088 146.777 230.942 147.176 230.38 147.364C227.994 148.161 226.52 147.762 226.52 147.762L226.076 145.511Z" fill="#FFBE9D"/>
<path d="M222.683 116.952C222.683 116.952 215.851 117.374 213.489 120.68C210.166 125.323 203.569 145.136 207.336 147.762C211.594 150.74 226.707 148.536 226.707 148.536C226.707 148.536 227.221 146.191 226.52 145.042C225.818 143.893 214.448 142.064 213.933 141.525C213.418 141.009 220.507 131.278 220.507 129.684C220.507 128.136 222.683 116.952 222.683 116.952Z" fill="#244932"/>
<path d="M232.228 146.238C232.228 146.238 233.281 147.622 233.632 147.786C233.983 147.95 234.217 147.903 234.217 147.903L233.491 146.613L232.228 146.238Z" fill="#FF7D44"/>
<path d="M231.995 144.831L235.083 146.332C235.083 146.332 234.942 146.543 234.568 146.52C234.194 146.496 233.235 146.144 233.235 146.144L231.995 144.831Z" fill="#FF7D44"/>
<path d="M258.408 148.372L226.076 148.348V149.075H258.127L258.408 148.372Z" fill="#3B5E47"/>
<path d="M233.632 149.075H258.127L265.496 130.739L241.049 130.716L233.632 149.075Z" fill="#3B5E47"/>
<path d="M251.951 139.907C252.138 139.251 251.764 138.735 251.108 138.735C250.453 138.735 249.798 139.251 249.611 139.907C249.424 140.564 249.798 141.08 250.453 141.08C251.085 141.08 251.764 140.564 251.951 139.907Z" fill="white"/>
<g opacity="0.5">
<path opacity="0.5" d="M372.693 209.758L365.931 201.082L365.604 200.684L365.229 200.613L333.974 194.845L323.469 252.128L363.966 259.608L372.973 210.602L373.043 210.204L372.693 209.758Z" fill="#95CE91"/>
</g>
<path d="M352.362 191.985L352.385 192.383L354.304 242.186L313.152 243.781L310.906 185.583L342.653 184.341L343.027 184.317L343.448 184.645L351.941 191.633L352.362 191.985Z" fill="#A3D898"/>
<path d="M325.294 206.241L256.607 210.086C256.466 210.086 256.373 210.204 256.373 210.344L261.379 300.501C261.379 300.642 261.496 300.735 261.636 300.735L330.231 296.913C330.371 296.913 330.465 296.796 330.465 296.655L325.458 206.382C325.458 206.311 325.388 206.241 325.294 206.241Z" fill="#336024"/>
<path d="M325.177 294.053L266.994 297.711C265.239 297.828 263.742 296.491 263.625 294.733L258.665 215.479C258.548 213.721 259.882 212.22 261.636 212.103L319.82 208.445C321.574 208.328 323.072 209.664 323.189 211.423L328.148 290.676C328.242 292.435 326.908 293.959 325.177 294.053Z" fill="#EEF9ED"/>
<path d="M302.202 221.552L265.589 223.85C265.566 223.85 265.566 223.827 265.542 223.827L265.496 222.912C265.496 222.889 265.519 222.889 265.519 222.865L302.132 220.567C302.156 220.567 302.156 220.591 302.179 220.591L302.226 221.505C302.226 221.529 302.226 221.552 302.202 221.552Z" fill="#C6F7BF"/>
<path d="M302.695 229.431L266.081 231.729C266.058 231.729 266.058 231.705 266.035 231.705L265.988 230.791C265.988 230.767 266.011 230.767 266.011 230.744L302.624 228.446C302.648 228.446 302.648 228.469 302.671 228.469L302.718 229.384C302.741 229.407 302.718 229.431 302.695 229.431Z" fill="#C6F7BF"/>
<path d="M316.427 224.624L265.847 227.813C265.824 227.813 265.824 227.789 265.8 227.789L265.753 226.875C265.753 226.851 265.777 226.851 265.777 226.828L316.357 223.639C316.38 223.639 316.38 223.663 316.404 223.663L316.451 224.577C316.474 224.6 316.451 224.6 316.427 224.624Z" fill="#C6F7BF"/>
<path d="M293.851 254.473L268.935 256.044C268.912 256.044 268.912 256.044 268.912 256.02L268.865 255.083C268.865 255.059 268.865 255.059 268.888 255.059L293.78 253.488C293.804 253.488 293.804 253.488 293.804 253.512L293.851 254.449C293.874 254.449 293.874 254.473 293.851 254.473Z" fill="#C6F7BF"/>
<path d="M303.116 249.924L268.702 252.081C268.678 252.081 268.678 252.081 268.678 252.058L268.631 251.12C268.631 251.096 268.631 251.096 268.655 251.096L303.069 248.939C303.092 248.939 303.092 248.939 303.092 248.963L303.139 249.901C303.139 249.924 303.139 249.924 303.116 249.924Z" fill="#C6F7BF"/>
<path d="M305.665 258.131L269.052 260.429C269.029 260.429 269.029 260.405 269.005 260.405L268.959 259.491C268.959 259.467 268.982 259.467 268.982 259.444L305.595 257.146C305.619 257.146 305.619 257.169 305.642 257.169L305.689 258.084C305.689 258.107 305.689 258.131 305.665 258.131Z" fill="#C6F7BF"/>
<path d="M309.993 261.812L269.286 264.368C269.262 264.368 269.262 264.368 269.262 264.344L269.215 263.43C269.215 263.406 269.239 263.406 269.239 263.406L309.946 260.851C309.97 260.851 309.97 260.874 309.97 260.874L310.016 261.789C310.04 261.789 310.016 261.812 309.993 261.812Z" fill="#C6F7BF"/>
<path d="M296.143 269.62L269.941 271.261C269.917 271.261 269.917 271.261 269.917 271.238L269.871 270.3C269.871 270.277 269.871 270.277 269.894 270.277L296.097 268.635C296.12 268.635 296.12 268.635 296.12 268.659L296.167 269.597C296.167 269.597 296.167 269.62 296.143 269.62Z" fill="#C6F7BF"/>
<path d="M296.634 277.499L270.432 279.14C270.408 279.14 270.408 279.14 270.408 279.116L270.362 278.179C270.362 278.155 270.362 278.155 270.385 278.155L296.588 276.514C296.611 276.514 296.611 276.514 296.611 276.537L296.658 277.475C296.681 277.475 296.658 277.499 296.634 277.499Z" fill="#C6F7BF"/>
<path d="M306.414 272.926L270.199 275.201C270.175 275.201 270.175 275.201 270.175 275.177L270.128 274.239C270.128 274.216 270.128 274.216 270.152 274.216L306.367 271.941C306.391 271.941 306.391 271.941 306.391 271.965L306.438 272.903C306.438 272.926 306.414 272.926 306.414 272.926Z" fill="#C6F7BF"/>
<path d="M306.578 202.302L274.551 204.084C272.445 204.201 270.807 205.889 270.924 207.859L271.205 212.712C271.228 213.158 271.65 213.51 272.141 213.486L310.064 211.376C310.556 211.353 310.93 210.954 310.907 210.508L310.626 205.655C310.485 203.685 308.684 202.184 306.578 202.302Z" fill="#FF7D44"/>
<path d="M364.457 241.272C364.457 241.272 363.802 239.771 363.358 239.068C362.937 238.364 361.088 236.277 360.761 236.746C360.457 237.215 359.193 240.381 359.848 241.272C360.504 242.163 359.802 243.71 363.124 244.648L364.457 241.272Z" fill="#FF7D44"/>
<path d="M401.281 231.799C401.281 231.799 384.32 245.985 377.699 244.672C372.529 243.64 364.34 241.037 364.34 241.037C364.34 241.037 362.188 243.101 362.796 245.563C362.796 245.563 373.207 255.387 380.647 255.458C392.251 255.551 397.725 249.69 397.725 249.69L401.281 231.799Z" fill="#C66044"/>
<path d="M431.04 381.513C431.04 381.513 430.549 389.485 429.005 389.579C428.794 389.602 421.214 389.602 421.214 389.602L411.529 389.555C411.529 389.555 411.599 387.211 414.43 386.718C417.261 386.226 422.01 384.233 423.718 380.481C425.519 376.518 431.04 381.513 431.04 381.513Z" fill="#0C1E12"/>
<path d="M431.602 382.075C431.602 382.075 428.654 383.06 426.361 383.06C423.788 383.06 421.472 382.357 421.472 382.357C421.472 382.357 420.91 376.987 417.869 365.146C416.278 358.933 413.986 350.96 410.734 341.042C401.75 313.632 399.013 297.593 398.755 296.069C398.732 295.999 398.732 295.952 398.732 295.952L398.755 295.928L426.385 283.759C426.385 283.759 422.969 321.533 427.321 336.048C427.929 338.064 428.444 340.432 428.912 342.988C431.672 358.745 431.602 382.075 431.602 382.075Z" fill="#244932"/>
<path d="M417.846 365.123C416.255 358.909 413.962 350.937 410.71 341.018C401.727 313.608 398.989 297.57 398.732 296.046C398.732 295.999 398.732 295.952 398.732 295.905L426.361 283.736C426.361 283.736 422.946 321.51 427.297 336.024C427.929 338.064 417.846 365.123 417.846 365.123Z" fill="#0C1E12"/>
<path d="M409.447 381.513C409.447 381.513 408.955 389.485 407.411 389.579C407.201 389.602 399.621 389.602 399.621 389.602L389.935 389.555C389.935 389.555 390.005 387.211 392.836 386.718C395.667 386.226 400.416 384.233 402.124 380.481C403.925 376.518 409.447 381.513 409.447 381.513Z" fill="#0C1E12"/>
<path d="M393.795 284.65C393.795 284.65 393.444 309.13 397.655 339.19C401.889 369.25 400.439 382.005 400.439 382.005C400.439 382.005 403.34 382.943 404.51 383.037C407.504 383.271 410.546 382.333 410.546 382.333C410.546 382.333 416.605 352.273 414.85 337.22C413.119 322.167 423.132 285.588 423.132 285.588L393.795 284.65Z" fill="#244932"/>
<path d="M413.377 227.367L407.973 230.908L403.06 229.524C402.171 228.235 401.913 225.773 401.913 223.616C401.89 221.482 402.101 219.676 402.101 219.676L409.376 216.464L412.09 215.268C412.09 215.315 411.88 217.496 411.856 217.824C411.365 223.498 413.377 227.367 413.377 227.367Z" fill="#FF7D44"/>
<path d="M393.655 291.45C400.369 297.945 425.776 296.843 427.344 289.691C428.911 282.54 425.636 228.751 414.172 225.374C411.786 224.671 399.059 228.798 399.059 228.798C399.059 228.798 397.07 234.026 395.76 240.686C395.503 241.975 394.754 255.716 394.216 268.588C393.959 274.591 393.748 280.43 393.631 284.674C393.514 288.707 393.514 291.309 393.655 291.45Z" fill="#FF7D44"/>
<path d="M411.318 217.918C409.844 220.427 404.651 222.607 401.913 223.616C401.89 221.482 402.101 219.676 402.101 219.676L409.376 216.464C411.014 216.441 411.973 216.792 411.318 217.918Z" fill="#FF7D44"/>
<path d="M399.363 219.231C399.363 219.231 411.084 222.889 413.26 215.55C415.435 208.187 418.407 203.709 410.99 201.059C403.598 198.409 401.305 200.778 399.995 203.052C398.685 205.326 396.368 218.082 399.363 219.231Z" fill="#FFBE9D"/>
<path d="M400.462 202.349C400.462 202.349 401.211 210.907 402.965 210.532C404.72 210.157 406.685 209.359 406.428 211.939C406.17 214.518 408.136 218.95 410.686 218.926C416.137 218.903 422.079 204.857 420.582 202.184C416.277 194.54 394.239 192.969 400.462 202.349Z" fill="#0C1E12"/>
<path d="M402.194 225.585C402.334 225.515 410.92 221.67 411.926 221.998C412.932 222.326 414.172 225.398 414.172 225.398L399.059 228.821C399.082 228.821 400.252 226.383 402.194 225.585Z" fill="#FF7D44"/>
<path d="M348.783 267.228L396.86 312.6C397.796 313.491 398.989 313.772 399.504 313.233L401.118 311.498C401.633 310.959 401.282 309.786 400.323 308.895L352.246 263.524C351.31 262.633 350.117 262.351 349.602 262.891L347.988 264.626C347.497 265.165 347.848 266.337 348.783 267.228Z" fill="#112B1A"/>
<path d="M375.781 292.693L396.883 312.6C397.819 313.491 399.012 313.772 399.527 313.233L401.141 311.498C401.656 310.958 401.305 309.786 400.346 308.895L379.243 288.988L375.781 292.693Z" fill="#020703"/>
<path d="M351.24 213.181C336.969 197.987 313.129 197.26 297.969 211.564C297.759 211.751 297.571 211.939 297.384 212.126C282.786 226.476 282.271 249.947 296.355 264.954C310.626 280.148 334.466 280.875 349.626 266.572C354.585 261.882 358.001 256.185 359.849 250.088C363.639 237.567 360.832 223.405 351.24 213.181ZM347.567 264.415C338.747 272.739 326.722 275.529 315.749 272.926C309.363 271.402 303.327 268.073 298.484 262.914C285.336 248.916 286.014 226.898 299.981 213.744C305.128 208.89 311.351 205.936 317.808 204.811C328.921 202.888 340.735 206.405 349.041 215.245C362.212 229.22 361.534 251.237 347.567 264.415Z" fill="#112B1A"/>
<g opacity="0.5">
<g opacity="0.5">
<path opacity="0.5" d="M298.507 262.914C303.35 268.073 309.386 271.402 315.773 272.926C326.745 275.529 338.77 272.739 347.59 264.415C361.557 251.237 362.212 229.22 349.087 215.245C340.782 206.405 328.967 202.888 317.855 204.811C311.374 205.936 305.151 208.914 300.028 213.744C286.037 226.898 285.359 248.916 298.507 262.914Z" fill="#BAF7B5"/>
</g>
</g>
<path d="M393.631 284.697C420.138 265.775 417.915 240.521 417.915 240.521C408.23 245.985 398.614 258.107 394.216 268.588C393.959 274.615 393.748 280.453 393.631 284.697Z" fill="#FF7D44"/>
<path d="M367.475 276.092C365.604 275.67 364.364 274.239 364.083 274.005C364.083 274.005 363.288 274.052 364.224 275.763C364.294 275.904 364.481 276.279 364.598 276.537C364.645 276.654 364.574 276.772 364.458 276.772C363.381 276.865 362.305 276.42 360.223 276.865C359.942 276.936 359.849 277.616 359.872 277.897C359.895 278.39 359.849 278.952 360.434 279.703C360.761 280.148 361.697 280.617 363.779 281.461C364.574 281.789 366.844 281.532 368.949 280.805L370.657 280.007L370.143 276.842L369.721 276.936C369.02 277.077 368.177 276.256 367.475 276.092Z" fill="#FFBE9D"/>
<path d="M409.704 228.821C409.704 228.821 433.52 233.37 402.709 267.908C397.773 273.442 371.149 280.641 371.149 280.641C371.149 280.641 368.459 278.343 369.815 276.467C369.815 276.467 388.157 263.125 392.181 261.015C394.006 260.053 399.223 239.724 402.171 234.824C405.119 229.923 409.704 228.821 409.704 228.821Z" fill="#FF7D44"/>
<path d="M363.803 241.694C363.803 241.694 363.031 240.193 362.867 239.419C362.703 238.622 361.744 236.348 361.323 235.926C361.159 235.762 360.621 235.973 360.574 236.676C360.551 236.981 360.691 237.52 360.949 238.177C361.37 239.255 361.3 240.686 361.463 241.178C361.838 242.397 363.803 241.694 363.803 241.694Z" fill="#FFBE9D"/>
</svg>
